M48
;DRILL file {KiCad 4.0.5-e0-6337~49~ubuntu16.04.1} date Thu Jan 19 15:19:26 2017
;FORMAT={-:-/ absolute / inch / decimal}
FMAT,2
INCH,TZ
T1C0.016
T2C0.024
T3C0.031
T4C0.035
T5C0.040
T6C0.138
%
G90
G05
M72
T1
X6.45Y-3.8
X6.65Y-3.8
X6.8Y-4.55
X6.8Y-4.9
T2
X6.5Y-3.95
X6.55Y-3.95
X6.6Y-3.95
T3
X6.15Y-3.575
X6.2Y-3.95
X6.2Y-4.35
X6.35Y-3.74
X6.35Y-3.95
X6.35Y-4.35
X6.55Y-3.575
X6.75Y-4.3
X6.75Y-5.1
X6.85Y-3.74
X7.15Y-4.3
X7.15Y-5.1
T4
X6.3Y-4.8
X6.3Y-5.1
X6.4Y-4.8
X6.4Y-5.1
X6.55Y-4.3
X6.55Y-4.6
X6.65Y-4.3
X6.65Y-4.6
T5
X6.15Y-3.4
X6.25Y-3.4
X6.35Y-3.4
X6.575Y-3.4
X6.675Y-3.4
T6
X6.975Y-4.85
X6.98Y-3.425
T0
M30
